<mxfile host="app.diagrams.net" agent="Mozilla/5.0 (Windows NT 10.0; Win64; x64; rv:139.0) Gecko/20100101 Firefox/139.0" version="27.1.4">
  <diagram name="Page-1" id="Vj2Z5JJyAk5oJ0i5jmaD">
    <mxGraphModel dx="1442" dy="987" grid="0" gridSize="10" guides="1" tooltips="1" connect="1" arrows="1" fold="1" page="0" pageScale="1" pageWidth="850" pageHeight="1100" math="0" shadow="0">
      <root>
        <mxCell id="0" />
        <mxCell id="1" parent="0" />
        <mxCell id="CB2LPCBiZO9Efgwe6hKB-2" value="" style="endArrow=classic;html=1;rounded=0;fontSize=12;startSize=8;endSize=8;curved=1;" parent="1" edge="1">
          <mxGeometry width="50" height="50" relative="1" as="geometry">
            <mxPoint x="219" y="47" as="sourcePoint" />
            <mxPoint x="394" y="50" as="targetPoint" />
          </mxGeometry>
        </mxCell>
        <mxCell id="CB2LPCBiZO9Efgwe6hKB-3" value="&lt;div&gt;&lt;br&gt;&lt;/div&gt;&lt;div&gt;&lt;br&gt;&lt;/div&gt;&lt;div&gt;CORR1&lt;/div&gt;&lt;div&gt;CORR2&lt;/div&gt;" style="rounded=0;whiteSpace=wrap;html=1;" parent="1" vertex="1">
          <mxGeometry x="101" y="13" width="120" height="355" as="geometry" />
        </mxCell>
        <mxCell id="CB2LPCBiZO9Efgwe6hKB-4" value="NMS" style="rounded=0;whiteSpace=wrap;html=1;" parent="1" vertex="1">
          <mxGeometry x="395" y="17" width="120" height="82" as="geometry" />
        </mxCell>
        <mxCell id="CB2LPCBiZO9Efgwe6hKB-6" value="" style="endArrow=classic;html=1;rounded=0;fontSize=12;startSize=8;endSize=8;curved=1;entryX=0.992;entryY=0.168;entryDx=0;entryDy=0;entryPerimeter=0;" parent="1" edge="1" target="CB2LPCBiZO9Efgwe6hKB-3">
          <mxGeometry width="50" height="50" relative="1" as="geometry">
            <mxPoint x="394" y="74" as="sourcePoint" />
            <mxPoint x="224" y="70" as="targetPoint" />
          </mxGeometry>
        </mxCell>
        <mxCell id="CB2LPCBiZO9Efgwe6hKB-8" value="MNC" style="text;html=1;align=center;verticalAlign=middle;whiteSpace=wrap;rounded=0;" parent="1" vertex="1">
          <mxGeometry x="131" y="-26" width="60" height="30" as="geometry" />
        </mxCell>
        <mxCell id="CB2LPCBiZO9Efgwe6hKB-9" value="MNC Receive Registry" style="shape=cylinder3;whiteSpace=wrap;html=1;boundedLbl=1;backgroundOutline=1;size=15;" parent="1" vertex="1">
          <mxGeometry x="128" y="261" width="60" height="80" as="geometry" />
        </mxCell>
        <mxCell id="CB2LPCBiZO9Efgwe6hKB-10" value="" style="shape=table;startSize=0;container=1;collapsible=0;childLayout=tableLayout;fontSize=16;" parent="1" vertex="1">
          <mxGeometry x="338" y="226" width="247" height="159" as="geometry" />
        </mxCell>
        <mxCell id="CB2LPCBiZO9Efgwe6hKB-11" value="" style="shape=tableRow;horizontal=0;startSize=0;swimlaneHead=0;swimlaneBody=0;strokeColor=inherit;top=0;left=0;bottom=0;right=0;collapsible=0;dropTarget=0;fillColor=none;points=[[0,0.5],[1,0.5]];portConstraint=eastwest;fontSize=16;" parent="CB2LPCBiZO9Efgwe6hKB-10" vertex="1">
          <mxGeometry width="247" height="82" as="geometry" />
        </mxCell>
        <mxCell id="CB2LPCBiZO9Efgwe6hKB-12" value="Key&lt;span style=&quot;white-space: pre;&quot;&gt;&#x9;&lt;span style=&quot;white-space: pre;&quot;&gt;&#x9;&lt;/span&gt;&lt;/span&gt;" style="shape=partialRectangle;html=1;whiteSpace=wrap;connectable=0;strokeColor=inherit;overflow=hidden;fillColor=none;top=0;left=0;bottom=0;right=0;pointerEvents=1;fontSize=16;" parent="CB2LPCBiZO9Efgwe6hKB-11" vertex="1">
          <mxGeometry width="124" height="82" as="geometry">
            <mxRectangle width="124" height="82" as="alternateBounds" />
          </mxGeometry>
        </mxCell>
        <mxCell id="CB2LPCBiZO9Efgwe6hKB-13" value="Value" style="shape=partialRectangle;html=1;whiteSpace=wrap;connectable=0;strokeColor=inherit;overflow=hidden;fillColor=none;top=0;left=0;bottom=0;right=0;pointerEvents=1;fontSize=16;" parent="CB2LPCBiZO9Efgwe6hKB-11" vertex="1">
          <mxGeometry x="124" width="123" height="82" as="geometry">
            <mxRectangle width="123" height="82" as="alternateBounds" />
          </mxGeometry>
        </mxCell>
        <mxCell id="CB2LPCBiZO9Efgwe6hKB-15" value="" style="shape=tableRow;horizontal=0;startSize=0;swimlaneHead=0;swimlaneBody=0;strokeColor=inherit;top=0;left=0;bottom=0;right=0;collapsible=0;dropTarget=0;fillColor=none;points=[[0,0.5],[1,0.5]];portConstraint=eastwest;fontSize=16;" parent="CB2LPCBiZO9Efgwe6hKB-10" vertex="1">
          <mxGeometry y="82" width="247" height="77" as="geometry" />
        </mxCell>
        <mxCell id="CB2LPCBiZO9Efgwe6hKB-16" value="CORR1" style="shape=partialRectangle;html=1;whiteSpace=wrap;connectable=0;strokeColor=inherit;overflow=hidden;fillColor=none;top=0;left=0;bottom=0;right=0;pointerEvents=1;fontSize=16;" parent="CB2LPCBiZO9Efgwe6hKB-15" vertex="1">
          <mxGeometry width="124" height="77" as="geometry">
            <mxRectangle width="124" height="77" as="alternateBounds" />
          </mxGeometry>
        </mxCell>
        <mxCell id="CB2LPCBiZO9Efgwe6hKB-17" value="COAP Request Message" style="shape=partialRectangle;html=1;whiteSpace=wrap;connectable=0;strokeColor=inherit;overflow=hidden;fillColor=none;top=0;left=0;bottom=0;right=0;pointerEvents=1;fontSize=16;" parent="CB2LPCBiZO9Efgwe6hKB-15" vertex="1">
          <mxGeometry x="124" width="123" height="77" as="geometry">
            <mxRectangle width="123" height="77" as="alternateBounds" />
          </mxGeometry>
        </mxCell>
        <mxCell id="CB2LPCBiZO9Efgwe6hKB-23" value="" style="endArrow=classic;startArrow=classic;html=1;rounded=0;fontSize=12;startSize=8;endSize=8;curved=1;" parent="1" edge="1">
          <mxGeometry width="50" height="50" relative="1" as="geometry">
            <mxPoint x="189" y="301" as="sourcePoint" />
            <mxPoint x="336" y="299" as="targetPoint" />
          </mxGeometry>
        </mxCell>
        <mxCell id="CB2LPCBiZO9Efgwe6hKB-25" value="NODE" style="shape=display;whiteSpace=wrap;html=1;" parent="1" vertex="1">
          <mxGeometry x="-285" y="287" width="173" height="91" as="geometry" />
        </mxCell>
        <mxCell id="CB2LPCBiZO9Efgwe6hKB-28" value="" style="endArrow=classic;html=1;rounded=0;fontSize=12;startSize=8;endSize=8;curved=1;exitX=-0.025;exitY=0.932;exitDx=0;exitDy=0;exitPerimeter=0;" parent="1" source="CB2LPCBiZO9Efgwe6hKB-3" edge="1">
          <mxGeometry width="50" height="50" relative="1" as="geometry">
            <mxPoint x="-114" y="349" as="sourcePoint" />
            <mxPoint x="-112" y="344" as="targetPoint" />
          </mxGeometry>
        </mxCell>
        <mxCell id="CB2LPCBiZO9Efgwe6hKB-31" value="COAP Request Message" style="edgeLabel;html=1;align=center;verticalAlign=middle;resizable=0;points=[];fontSize=12;" parent="CB2LPCBiZO9Efgwe6hKB-28" vertex="1" connectable="0">
          <mxGeometry x="0.3959" y="-3" relative="1" as="geometry">
            <mxPoint x="16" y="-95" as="offset" />
          </mxGeometry>
        </mxCell>
        <mxCell id="CB2LPCBiZO9Efgwe6hKB-29" value="" style="endArrow=classic;html=1;rounded=0;fontSize=12;startSize=8;endSize=8;curved=1;exitX=0.972;exitY=0.147;exitDx=0;exitDy=0;exitPerimeter=0;entryX=-0.015;entryY=0.812;entryDx=0;entryDy=0;entryPerimeter=0;" parent="1" source="CB2LPCBiZO9Efgwe6hKB-25" target="CB2LPCBiZO9Efgwe6hKB-3" edge="1">
          <mxGeometry width="50" height="50" relative="1" as="geometry">
            <mxPoint x="274" y="296" as="sourcePoint" />
            <mxPoint x="59" y="298" as="targetPoint" />
          </mxGeometry>
        </mxCell>
        <mxCell id="CB2LPCBiZO9Efgwe6hKB-30" value="COAP Response Message" style="text;html=1;align=center;verticalAlign=middle;whiteSpace=wrap;rounded=0;" parent="1" vertex="1">
          <mxGeometry x="-98" y="365" width="162" height="30" as="geometry" />
        </mxCell>
        <mxCell id="CB2LPCBiZO9Efgwe6hKB-33" value="(Correlation ID to be generated by MNC)" style="text;html=1;align=center;verticalAlign=middle;whiteSpace=wrap;rounded=0;" parent="1" vertex="1">
          <mxGeometry x="-175" y="257" width="288" height="30" as="geometry" />
        </mxCell>
        <mxCell id="CB2LPCBiZO9Efgwe6hKB-36" value="&lt;h1 style=&quot;margin-top: 0px;&quot;&gt;Node to Application Request/Response Flow&lt;/h1&gt;&lt;p&gt;&lt;br&gt;&lt;/p&gt;" style="text;html=1;whiteSpace=wrap;overflow=hidden;rounded=0;" parent="1" vertex="1">
          <mxGeometry x="-168" y="-160" width="693" height="45" as="geometry" />
        </mxCell>
        <mxCell id="YwyPb7a_4dM3mAwtg604-2" value="COAP Kafka Request (JSON)" style="text;html=1;align=center;verticalAlign=middle;whiteSpace=wrap;rounded=0;" vertex="1" parent="1">
          <mxGeometry x="258" y="-4" width="80" height="41" as="geometry" />
        </mxCell>
        <mxCell id="YwyPb7a_4dM3mAwtg604-3" value="COAP Kafka Response (JSON)" style="text;html=1;align=center;verticalAlign=middle;whiteSpace=wrap;rounded=0;rotation=0;" vertex="1" parent="1">
          <mxGeometry x="273" y="78" width="82" height="57" as="geometry" />
        </mxCell>
        <mxCell id="YwyPb7a_4dM3mAwtg604-9" value="&lt;div&gt;&lt;b&gt;&lt;font style=&quot;font-size: 12px;&quot;&gt;High Level Responsibilities OF MNC:&lt;/font&gt;&lt;/b&gt;&lt;/div&gt;&lt;div&gt;&lt;b&gt;&lt;br&gt;&lt;/b&gt;&lt;/div&gt;&lt;div&gt;1. Convert CoAP request message to COAP Kafka (JSON) Request.&lt;/div&gt;&lt;div&gt;&lt;br&gt;&lt;/div&gt;&lt;div&gt;2.Convert COAP Kafka (JSON) response to CoAP response message&lt;/div&gt;&lt;div&gt;&lt;br&gt;&lt;/div&gt;&lt;div&gt;3.Maintain receive registry.&lt;/div&gt;&lt;div&gt;&lt;br&gt;&lt;/div&gt;" style="text;html=1;align=left;verticalAlign=middle;whiteSpace=wrap;rounded=0;textDirection=ltr;fontSize=10;" vertex="1" parent="1">
          <mxGeometry x="-297" y="4" width="240" height="120" as="geometry" />
        </mxCell>
      </root>
    </mxGraphModel>
  </diagram>
</mxfile>
